# xmcd
#
# Track frame offsets:
#	150
#	13697
#	30351
#	43828
#	59679
#	75633
#	88066
#	105217
#	122191
#	142115
#	160834
#	175152
#	192171
#	208801
#	224993
#	241178
#	258798
#
# Disc length: 3709 seconds
#
# Revision: 2
# Processed by: cddbd v1.5.1PL0 Copyright (c) Steve Scherf et al.
# Submitted via: audiograbber 1.83.01
#
DISCID=f00e7b11
DTITLE=Various Artist - RC56
DYEAR=1999
DGENRE=Country
TTITLE0=Shania Twain - Come On Over
TTITLE1=Ty Herndon - Steam
TTITLE2=Shane Minor - Ordinary World
TTITLE3=John Michael Montgomery - Home To You
TTITLE4=Reba - What Do You Say
TTITLE5=Yankee Grey - All Things Considered
TTITLE6=Shane McAnalley - Are Your Eyes Still Blue
TTITLE7=Jason Sellers - A Matter Of Time
TTITLE8=Garth Brooks - It Don't Matter To The Sun
TTITLE9=Clint Black - When I Said I Do
TTITLE10=LeAnn Rimes - Big Deal
TTITLE11=Clay Walker - Live, Love, Laugh
TTITLE12=Brooks And Dunn - Missing You
TTITLE13=Sherrie Austin - Never Been Kissed
TTITLE14=Randy Travis - Man Ain't Made Of Stone
TTITLE15=Brad Paisley - He Didn't Have To Be
TTITLE16=Sammy Kershaw - When You Love Someone
EXTD=
EXTT0=
EXTT1=
EXTT2=
EXTT3=
EXTT4=
EXTT5=
EXTT6=
EXTT7=
EXTT8=
EXTT9=
EXTT10=
EXTT11=
EXTT12=
EXTT13=
EXTT14=
EXTT15=
EXTT16=
PLAYORDER=
